{"title":"Pittsburgh_VS_Baltimore_Second_Half_1-15-2011_720p_TTL","uid":6107653,"size":2730963384,"categoryP":"video","categoryS":"hd___tv_shows","magnet":"?xt=urn:btih:df023ac56791711ddca6bb6e4018e73a700c3c1b&amp;dn=Pittsburgh_VS_Baltimore_Second_Half_1-15-2011_720p_TTL&amp;tr=udp%3A%2F%2Ftracker.openbittorrent.com%3A80&amp;tr=udp%3A%2F%2Fopen.demonii.com%3A1337&amp;tr=udp%3A%2F%2Ftracker.coppersurfer.tk%3A6969&amp;tr=udp%3A%2F%2Fexodus.desync.com%3A6969","seeders":0,"leechers":1,"uploader":"thetorrentlord","files":6,"time":1295224300,"description":"Pittsburgh_VS_Baltimore_Third_Quarter_1-15-2011_720p_TTL.avi\nFormat                           : AVI\nFormat/Info                      : Audio Video Interleave\nFormat profile                   : OpenDML\nFile size                        : 1.02 GiB\nDuration                         : 35mn 53s\nOverall bit rate                 : 4 069 Kbps\nMovie name                       : Pittsburgh_VS_Baltimore_Third_Quarter_1-15-2011_720p_TTL.mpg\nDirector                         : created.with.SUPER(C).v2009.bld.35\nWriting application              : SUPER(C)   \n\nVideo\nID                               : 0\nFormat                           : MPEG-4 Visual\nFormat profile                   : Simple@L3\nFormat settings, BVOP            : No\nFormat settings, QPel            : No\nFormat settings, GMC             : No warppoints\nFormat settings, Matrix          : Default (H.263)\nCodec ID                         : XVID\nCodec ID/Hint                    : XviD\nDuration                         : 35mn 53s\nBit rate                         : 3 939 Kbps\nWidth                            : 1 280 pixels\nHeight                           : 720 pixels\nDisplay aspect ratio             : 16:9\nFrame rate                       : 29.970 fps\nColor space                      : YUV\nChroma subsampling               : 4:2:0\nBit depth                        : 8 bits\nScan type                        : Progressive\nBits/(Pixel*Frame)               : 0.143\nStream size                      : 1 011 MiB (97%)\nWriting library                  : XviD 1.1.2 (UTC 2006-11-01)\n\nAudio\nID                               : 1\nFormat                           : MPEG Audio\nFormat version                   : Version 1\nFormat profile                   : Layer 3\nMode                             : Joint stereo\nCodec ID                         : 55\nCodec ID/Hint                    : MP3\nDuration                         : 35mn 53s\nBit rate mode                    : Constant\nBit rate                         : 112 Kbps\nChannel(s)                       : 2 channels\nSampling rate                    : 48.0 KHz\nStream size                      : 28.8 MiB (3%)\nAlignment                        : Aligned on interleaves\nInterleave, duration             : 24 ms (0.72 video frame)\nInterleave, preload duration     : 24 ms\n\n","torrent":{"xt":"urn:btih:df023ac56791711ddca6bb6e4018e73a700c3c1b","amp;dn":"Pittsburgh_VS_Baltimore_Second_Half_1-15-2011_720p_TTL","amp;tr":["udp%3A%2F%2Ftracker.openbittorrent.com%3A80","udp%3A%2F%2Fopen.demonii.com%3A1337","udp%3A%2F%2Ftracker.coppersurfer.tk%3A6969","udp%3A%2F%2Fexodus.desync.com%3A6969"],"infoHash":"df023ac56791711ddca6bb6e4018e73a700c3c1b","infoHashBuffer":{"type":"Buffer","data":[223,2,58,197,103,145,113,29,220,166,187,110,64,24,231,58,112,12,60,27]},"announce":[],"urlList":[]}}